<?xml version="1.0" encoding="UTF-8"?>
<svg xmlns="http://www.w3.org/2000/svg" xmlns:xlink="http://www.w3.org/1999/xlink" viewBox="0 0 50 50" width="50px" height="50px">
<g id="surface107709877">
<path style=" stroke:none;fill-rule:nonzero;fill:rgb(100%,100%,100%);fill-opacity:1;" d="M 25 1.199219 C 38.144531 1.199219 48.800781 11.855469 48.800781 25 C 48.800781 35.566406 41.910156 44.523438 32.378906 47.628906 C 32.382812 47.621094 32.386719 47.605469 32.386719 47.605469 C 32.386719 47.605469 30.78125 46.851562 30.8125 45.507812 C 30.851562 44.03125 30.8125 40.578125 30.8125 39.3125 C 30.8125 37.136719 29.4375 35.597656 29.4375 35.597656 C 29.4375 35.597656 40.230469 35.71875 40.230469 24.203125 C 40.230469 19.757812 37.90625 17.445312 37.90625 17.445312 C 37.90625 17.445312 39.128906 12.703125 37.484375 10.691406 C 35.644531 10.492188 32.347656 12.453125 30.941406 13.367188 C 30.941406 13.367188 28.710938 12.453125 25 12.453125 C 21.289062 12.453125 19.058594 13.367188 19.058594 13.367188 C 17.648438 12.453125 14.351562 10.492188 12.511719 10.691406 C 10.871094 12.703125 12.089844 17.445312 12.089844 17.445312 C 12.089844 17.445312 9.765625 19.761719 9.765625 24.203125 C 9.765625 35.71875 20.558594 35.597656 20.558594 35.597656 C 20.558594 35.597656 19.472656 36.824219 19.234375 38.632812 C 18.480469 38.886719 17.371094 39.203125 16.476562 39.203125 C 14.136719 39.203125 12.355469 36.925781 11.703125 35.871094 C 11.058594 34.832031 9.738281 33.960938 8.507812 33.960938 C 7.699219 33.960938 7.300781 34.367188 7.300781 34.828125 C 7.300781 35.292969 8.4375 35.617188 9.1875 36.472656 C 10.769531 38.285156 10.742188 42.355469 16.375 42.355469 C 16.984375 42.355469 18.234375 42.207031 19.171875 42.078125 C 19.167969 43.363281 19.167969 44.714844 19.1875 45.503906 C 19.21875 46.851562 17.613281 47.601562 17.613281 47.601562 C 17.613281 47.601562 17.617188 47.617188 17.621094 47.625 C 8.089844 44.523438 1.199219 35.566406 1.199219 25 C 1.199219 11.855469 11.855469 1.199219 25 1.199219 Z M 25 1.199219 "/>
</g>
</svg>
